<svg viewBox="0 0 512 512" xml:space="preserve" xmlns="http://www.w3.org/2000/svg" enable-background="new 0 0 512 512"><path d="M413.696 399.751V169.75H184.32v-14.375c0-23.779 19.295-43.124 43.004-43.124h43.008v-86.25h-43.008c-71.134 0-129.019 58.044-129.019 129.374v14.375H40.962V256h57.342v143.751H40.962v86.248h200.705v-86.248H184.32V256h144.157v143.751h-58.145v86.248h200.705v-86.248h-57.341z" fill="#ffffff" class="fill-1dbf73"></path><path d="M370.685 112.251c23.751 0 43.012-19.306 43.012-43.125 0-23.821-19.261-43.125-43.012-43.124-23.749 0-43.005 19.303-43.005 43.124 0 23.819 19.256 43.125 43.005 43.125z" fill="#ffffff" class="fill-1dbf73"></path></svg>